<?xml version="1.0" standalone="no"?>
<!DOCTYPE svg PUBLIC "-//W3C//DTD SVG 20010904//EN"
 "http://www.w3.org/TR/2001/REC-SVG-20010904/DTD/svg10.dtd">
<svg version="1.0" xmlns="http://www.w3.org/2000/svg"
 width="500.000000pt" height="500.000000pt" viewBox="0 0 500.000000 500.000000"
 preserveAspectRatio="xMidYMid meet">
<metadata>
Created by potrace 1.11, written by Peter Selinger 2001-2013
</metadata>
<g transform="translate(0.000000,500.000000) scale(0.100000,-0.100000)"
fill="#000000" stroke="none">
<path d="M438 3445 c-2 -11 -3 -490 -2 -1064 l1 -1044 159 1 c87 0 167 1 177
1 16 1 17 43 17 729 l0 727 86 -210 c46 -115 96 -239 110 -275 14 -36 32 -78
39 -95 7 -16 46 -111 85 -210 40 -99 78 -193 85 -210 8 -16 26 -61 41 -100 15
-38 28 -72 30 -74 2 -2 22 -4 46 -4 l43 -1 2 265 c3 280 5 265 -47 384 -10 22
-79 182 -155 355 -75 173 -145 333 -155 355 -10 22 -46 105 -80 185 -92 216
-109 253 -122 279 -13 23 -15 23 -185 25 -164 1 -172 0 -175 -19z"/>
<path d="M2054 3455 c-7 -5 -59 -116 -115 -245 -56 -129 -116 -269 -134 -310
-18 -41 -99 -228 -180 -415 l-147 -340 -2 -262 c-1 -289 -5 -271 64 -265 l35
4 73 181 c41 100 146 363 235 585 l162 404 5 -728 5 -727 165 1 c204 1 192 0
186 11 -5 8 -6 66 -6 291 0 36 1 88 1 115 0 28 0 57 0 65 0 8 0 56 -1 105 0
50 0 148 0 218 1 70 -2 132 -5 137 -3 5 -2 11 2 13 5 3 6 66 3 141 -3 75 -2
136 2 136 3 0 4 8 2 18 -8 28 -10 302 -2 302 3 0 4 8 2 18 -8 32 -9 302 -1
302 5 0 5 4 2 10 -3 5 -6 62 -6 125 0 63 -3 115 -7 116 -85 5 -328 2 -338 -6z"/>
<path d="M2939 3450 c-7 -93 -2 -2103 5 -2108 7 -4 275 -6 333 -3 17 1 17
2121 0 2122 -7 0 -85 1 -175 2 -138 2 -162 0 -163 -13z"/>
<path d="M4250 3462 l-45 -3 1 -464 2 -465 -398 0 c-310 0 -399 -3 -402 -12
-2 -7 -3 -60 -3 -118 l1 -105 399 0 400 0 2 -475 c1 -261 2 -477 3 -480 0 -4
223 -4 330 -1 13 1 15 125 14 1056 0 580 -3 1058 -7 1061 -6 6 -224 11 -297 6z"/>
</g>
</svg>
